<?xml version="1.0" encoding="UTF-8" standalone="no"?>
<svg
   version="1.1"
   width="240"
   height="240"
   viewBox="0 0 120 120"
   xml:space="preserve"
   id="svg92"
   sodipodi:docname="Bobber-catch-2b.svg"
   inkscape:version="1.1.1 (3bf5ae0d25, 2021-09-20)"
   xmlns:inkscape="http://www.inkscape.org/namespaces/inkscape"
   xmlns:sodipodi="http://sodipodi.sourceforge.net/DTD/sodipodi-0.dtd"
   xmlns="http://www.w3.org/2000/svg"
   xmlns:svg="http://www.w3.org/2000/svg"><sodipodi:namedview
   id="namedview94"
   pagecolor="#ffffff"
   bordercolor="#666666"
   borderopacity="1.0"
   inkscape:pageshadow="2"
   inkscape:pageopacity="0.0"
   inkscape:pagecheckerboard="0"
   showgrid="false"
   inkscape:zoom="3.4666667"
   inkscape:cx="119.85577"
   inkscape:cy="119.85577"
   inkscape:window-width="1920"
   inkscape:window-height="1017"
   inkscape:window-x="-8"
   inkscape:window-y="-8"
   inkscape:window-maximized="1"
   inkscape:current-layer="svg92"><inkscape:grid
     type="xygrid"
     id="grid1703" /></sodipodi:namedview>
<desc
   id="desc2">Created with Fabric.js 3.6.3</desc>
<defs
   id="defs4">
</defs>

<g
   transform="translate(57.58,87.281923)"
   id="g10">
<path
   style="opacity:1;fill:none;fill-rule:nonzero;stroke:#fdffff;stroke-width:1;stroke-linecap:butt;stroke-linejoin:miter;stroke-miterlimit:4;stroke-dasharray:none;stroke-dashoffset:0"
   vector-effect="non-scaling-stroke"
   transform="translate(-57.08,-91.83)"
   d="M 48,79.5 Q 4,81 32.5,99 q 24,6.5 45.5,2 32,-14.5 -5,-20"
   stroke-linecap="round"
   id="path8" />
</g>
<g
   transform="translate(59.45,87.561923)"
   id="g14"
   style="stroke:#8ea3c4;stroke-opacity:1;stroke-width:2.15;stroke-miterlimit:4;stroke-dasharray:none">
<path
   style="opacity:1;fill:none;fill-rule:nonzero;stroke:#8ea3c4;stroke-width:2.15;stroke-linecap:butt;stroke-linejoin:miter;stroke-miterlimit:4;stroke-dasharray:none;stroke-dashoffset:0;stroke-opacity:1"
   vector-effect="non-scaling-stroke"
   transform="translate(-58.45,-91.61)"
   d="M 51,78 Q 3,76.5 26,98.5 q 14,8 32,6.5 14.5,0 25,-4 33,-18.5 -18,-23"
   stroke-linecap="round"
   id="path12" />
</g>
<g
   transform="matrix(1.02,0,0,1.02,57.94,86.371923)"
   id="g18"
   style="stroke:#859bbd;stroke-opacity:1;stroke-width:1.44117647;stroke-miterlimit:4;stroke-dasharray:none">
<path
   style="opacity:1;fill:none;fill-rule:nonzero;stroke:#859bbd;stroke-width:1.44117647;stroke-linecap:butt;stroke-linejoin:miter;stroke-miterlimit:4;stroke-dasharray:none;stroke-dashoffset:0;stroke-opacity:1"
   vector-effect="non-scaling-stroke"
   transform="translate(-60.91,-94.63)"
   d="M 42,86.5 Q 16,89 39.5,102 q 27,4.5 41.5,-1 25.5,-8 -4,-17"
   stroke-linecap="round"
   id="path16" />
</g>
<g
   transform="matrix(-0.45,0,0,0.31627203,59.17,75.004694)"
   id="g22">
<path
   style="opacity:1;fill:#dc2a2d;fill-opacity:0.93;fill-rule:nonzero;stroke:#ffffff;stroke-width:1;stroke-linecap:butt;stroke-linejoin:miter;stroke-miterlimit:4;stroke-dasharray:none;stroke-dashoffset:0"
   transform="translate(-48,-48)"
   d="M 9.113,65.022 C 11.683,45.575 28.302,30.978 48,30.978 c 19.696,0 36.316,14.598 38.887,34.045 H 9.113 Z"
   stroke-linecap="round"
   id="path20" />
</g>
<g
   transform="matrix(1.03,0,0,1.31,58.55,83.041923)"
   id="g26"
   style="stroke:#9499c0;stroke-opacity:1;stroke-width:1.47340671;stroke-miterlimit:4;stroke-dasharray:none">
<path
   style="opacity:1;fill:#00ffbc;fill-opacity:0;fill-rule:nonzero;stroke:#9499c0;stroke-width:1.47340671;stroke-linecap:butt;stroke-linejoin:miter;stroke-miterlimit:4;stroke-dasharray:none;stroke-dashoffset:0;stroke-opacity:1"
   vector-effect="non-scaling-stroke"
   transform="translate(-60.45,-91)"
   d="m 42,89 q -17.5,3 15,5.5 h 15.5 q 23,-2.5 6,-7"
   stroke-linecap="round"
   id="path24" />
</g>
<g
   transform="translate(40,77.981923)"
   id="g30">
<path
   style="opacity:1;fill:none;fill-rule:nonzero;stroke:#ffffff;stroke-width:2;stroke-linecap:round;stroke-linejoin:round;stroke-miterlimit:10;stroke-dasharray:none;stroke-dashoffset:0"
   transform="translate(-20,-43.53)"
   d="M 18,46.002 Q 18,46 17.75,46 17.5,46 17.5,45.75 q 0,-0.25 0,-0.5 0,-0.25 0,-0.5 0,-0.25 0,-0.5 0,-0.25 0.25,-0.25 0.25,0 0.5,0 0.25,0 0.5,0 0.25,0 0.5,0 0.25,0 0.25,0.25 0,0.25 0.25,0.25 0.25,0 0.25,0.25 0,0.25 0,0.5 0,0.25 -0.25,0.25 -0.25,0 -0.5,0 -0.25,0 -0.25,0.25 0,0.25 0,0.5 0,0.25 -0.25,0.25 -0.25,0 0,0 Q 19,46.5 19,46.25 19,46 19.25,46 q 0.25,0 0.25,-0.25 0,-0.25 0,-0.5 0,-0.25 0,-0.5 0,-0.25 0,-0.5 0,-0.25 0,-0.5 0,-0.25 0,-0.5 0,-0.25 0,-0.5 0,-0.25 0.25,-0.25 0.25,0 0.25,0.25 0,0.25 0.25,0.25 0.25,0 0.5,0 0.25,0 0.25,0.25 0,0.25 0.25,0.25 0.25,0 0.25,0.25 Q 21.5,44 21.75,44 22,44 22,43.75 22,43.5 21.75,43.5 21.5,43.5 21.5,43.25 21.5,43 21.25,43 q -0.25,0 0,0 0.25,0 0.5,0 0.25,0 0.5,0 0.25,0 0.25,-0.25 0,-0.25 0,-0.5 0,-0.25 0,-0.5 0,-0.25 0,-0.5 0,-0.25 0,-0.5 0,-0.25 0,0 0,0.25 0,0.5 0,0.25 0,0.5 0,0.25 0,0.5 0,0.25 -0.25,0.25 -0.25,0 -0.5,0 -0.25,0 -0.5,0 -0.25,0 -0.25,0.25 0,0.25 0,0.5 0,0.25 0,0.5 0,0.25 0,0.5 v 0.252"
   stroke-linecap="round"
   id="path28" />
</g>
<g
   transform="matrix(-1,0,0,1,77.5,77.981923)"
   id="g34">
<path
   style="opacity:1;fill:none;fill-rule:nonzero;stroke:#ffffff;stroke-width:2;stroke-linecap:round;stroke-linejoin:round;stroke-miterlimit:10;stroke-dasharray:none;stroke-dashoffset:0"
   transform="translate(-20,-43.53)"
   d="M 18,46.002 Q 18,46 17.75,46 17.5,46 17.5,45.75 q 0,-0.25 0,-0.5 0,-0.25 0,-0.5 0,-0.25 0,-0.5 0,-0.25 0.25,-0.25 0.25,0 0.5,0 0.25,0 0.5,0 0.25,0 0.5,0 0.25,0 0.25,0.25 0,0.25 0.25,0.25 0.25,0 0.25,0.25 0,0.25 0,0.5 0,0.25 -0.25,0.25 -0.25,0 -0.5,0 -0.25,0 -0.25,0.25 0,0.25 0,0.5 0,0.25 -0.25,0.25 -0.25,0 0,0 Q 19,46.5 19,46.25 19,46 19.25,46 q 0.25,0 0.25,-0.25 0,-0.25 0,-0.5 0,-0.25 0,-0.5 0,-0.25 0,-0.5 0,-0.25 0,-0.5 0,-0.25 0,-0.5 0,-0.25 0,-0.5 0,-0.25 0.25,-0.25 0.25,0 0.25,0.25 0,0.25 0.25,0.25 0.25,0 0.5,0 0.25,0 0.25,0.25 0,0.25 0.25,0.25 0.25,0 0.25,0.25 Q 21.5,44 21.75,44 22,44 22,43.75 22,43.5 21.75,43.5 21.5,43.5 21.5,43.25 21.5,43 21.25,43 q -0.25,0 0,0 0.25,0 0.5,0 0.25,0 0.5,0 0.25,0 0.25,-0.25 0,-0.25 0,-0.5 0,-0.25 0,-0.5 0,-0.25 0,-0.5 0,-0.25 0,-0.5 0,-0.25 0,0 0,0.25 0,0.5 0,0.25 0,0.5 0,0.25 0,0.5 0,0.25 -0.25,0.25 -0.25,0 -0.5,0 -0.25,0 -0.5,0 -0.25,0 -0.25,0.25 0,0.25 0,0.5 0,0.25 0,0.5 0,0.25 0,0.5 v 0.252"
   stroke-linecap="round"
   id="path32" />
</g>
<g
   transform="matrix(0.02,-0.02,0.07,0.05,31.23,79.581923)"
   id="g38">
<circle
   style="opacity:1;fill:#fafaf5;fill-rule:nonzero;stroke:#000000;stroke-width:0;stroke-linecap:butt;stroke-linejoin:miter;stroke-miterlimit:4;stroke-dasharray:none;stroke-dashoffset:0"
   vector-effect="non-scaling-stroke"
   cx="0"
   cy="0"
   r="40"
   id="circle36" />
</g>
<g
   transform="matrix(0.03,0.02,-0.05,0.08,85.88,69.081923)"
   id="g42">
<circle
   style="opacity:1;fill:#fafaf5;fill-rule:nonzero;stroke:#000000;stroke-width:0;stroke-linecap:butt;stroke-linejoin:miter;stroke-miterlimit:4;stroke-dasharray:none;stroke-dashoffset:0"
   vector-effect="non-scaling-stroke"
   cx="0"
   cy="0"
   r="40"
   id="circle40" />
</g>
<g
   transform="matrix(0.02,-0.02,0.05,0.07,37.88,70.551923)"
   id="g46">
<circle
   style="opacity:1;fill:#fafaf5;fill-rule:nonzero;stroke:#000000;stroke-width:0;stroke-linecap:butt;stroke-linejoin:miter;stroke-miterlimit:4;stroke-dasharray:none;stroke-dashoffset:0"
   vector-effect="non-scaling-stroke"
   cx="0"
   cy="0"
   r="40"
   id="circle44" />
</g>
<g
   transform="matrix(0.02,-0.02,0.06,0.06,30.38,68.051923)"
   id="g50">
<circle
   style="opacity:1;fill:#fafaf5;fill-rule:nonzero;stroke:#000000;stroke-width:0;stroke-linecap:butt;stroke-linejoin:miter;stroke-miterlimit:4;stroke-dasharray:none;stroke-dashoffset:0"
   vector-effect="non-scaling-stroke"
   cx="0"
   cy="0"
   r="40"
   id="circle48" />
</g>
<g
   transform="matrix(0.97,0,0,1.04,58.69,86.591923)"
   id="g54">
<path
   style="opacity:1;fill:none;fill-rule:nonzero;stroke:#ecf2f3;stroke-width:1;stroke-linecap:butt;stroke-linejoin:miter;stroke-miterlimit:4;stroke-dasharray:none;stroke-dashoffset:0"
   vector-effect="non-scaling-stroke"
   transform="translate(-60.91,-94.63)"
   d="M 42,86.5 Q 16,89 39.5,102 q 27,4.5 41.5,-1 25.5,-8 -4,-17"
   stroke-linecap="round"
   id="path52" />
</g>
<g
   transform="matrix(0.02,0.02,-0.07,0.06,87.38,77.581923)"
   id="g58">
<circle
   style="opacity:1;fill:#fafaf5;fill-rule:nonzero;stroke:#000000;stroke-width:0;stroke-linecap:butt;stroke-linejoin:miter;stroke-miterlimit:4;stroke-dasharray:none;stroke-dashoffset:0"
   vector-effect="non-scaling-stroke"
   cx="0"
   cy="0"
   r="40"
   id="circle56" />
</g>
<g
   transform="matrix(0.03,0.01,-0.04,0.08,76.38,68.581923)"
   id="g62">
<circle
   style="opacity:1;fill:#fafaf5;fill-rule:nonzero;stroke:#000000;stroke-width:0;stroke-linecap:butt;stroke-linejoin:miter;stroke-miterlimit:4;stroke-dasharray:none;stroke-dashoffset:0"
   vector-effect="non-scaling-stroke"
   cx="0"
   cy="0"
   r="40"
   id="circle60" />
</g>
<g
   transform="translate(57.95,82.451923)"
   id="g66">
<path
   style="opacity:1;fill:none;fill-rule:nonzero;stroke:#fff4f4;stroke-width:1;stroke-linecap:butt;stroke-linejoin:miter;stroke-miterlimit:4;stroke-dasharray:none;stroke-dashoffset:0"
   vector-effect="non-scaling-stroke"
   transform="translate(-60.45,-91)"
   d="m 42,89 q -17.5,3 15,5.5 h 15.5 q 23,-2.5 6,-7"
   stroke-linecap="round"
   id="path64" />
</g>
<g
   transform="matrix(1.51,0,0,1,59,81.701923)"
   id="g70">
<path
   style="opacity:1;fill:none;fill-rule:nonzero;stroke:#fffdfd;stroke-width:2;stroke-linecap:round;stroke-linejoin:round;stroke-miterlimit:10;stroke-dasharray:none;stroke-dashoffset:0"
   transform="translate(-56.25,-53.75)"
   d="M 42.998,55 Q 43,55 43,55.25 q 0,0.25 0.25,0.25 0.25,0 0.25,-0.25 0,-0.25 0.25,-0.5 0.25,-0.25 0.5,-0.25 0.25,0 0.25,-0.25 0,-0.25 0.25,-0.25 0.25,0 0.5,-0.5 0.25,-0.5 0.5,-0.5 0.25,0 0.5,0 0.25,0 0.5,-0.25 0.25,-0.25 0.5,-0.5 0.25,-0.25 0.5,-0.25 0.25,0 0.5,0 0.25,0 0.25,0.25 0,0.25 0,0.5 0,0.25 -0.25,0.5 -0.25,0.25 -0.25,0.5 0,0.25 0,0.5 0,0.25 0,0.5 Q 48,55 47.75,55 47.5,55 47.5,55.25 47.5,55.5 47.25,55.5 47,55.5 47,55.75 47,56 46.75,56 46.5,56 46.5,55.75 46.5,55.5 46.75,55.5 47,55.5 47,55.25 47,55 47.25,55 q 0.25,0 0.75,0 0.5,0 0.75,-0.25 0.25,-0.25 0.5,-0.25 0.25,0 0.75,0 0.5,0 0.75,-0.25 Q 51,54 51.25,54 q 0.25,0 0.5,0 0.25,0 0.5,-0.25 0.25,-0.25 0.25,-0.5 0,-0.25 0.25,-0.25 0.25,0 0,0.25 -0.25,0.25 -0.5,0.25 -0.25,0 -0.5,0 -0.25,0 -0.5,0 Q 51,53.5 51,53.75 51,54 50.75,54 q -0.25,0 -0.5,0 -0.25,0 -0.5,0 -0.25,0 -0.5,0 -0.25,0 -0.25,0.25 0,0.25 -0.5,0.25 -0.5,0 -0.75,0 -0.25,0 -0.5,0.25 Q 47,55 46.5,55.25 46,55.5 46,55.25 46,55 46.25,55 q 0.25,0 0.5,0 0.25,0 0.25,0.25 0,0.25 0.25,0.25 0.25,0 0.25,0.25 Q 47.5,56 47.75,56 48,56 48,55.75 48,55.5 48.25,55.25 48.5,55 48.5,54.75 48.5,54.5 48.75,54.5 49,54.5 49,54.25 49,54 49.25,54 q 0.25,0 0.5,0 0.25,0 0.5,0 0.25,0 0.25,0.25 0,0.25 0.25,0.25 0.25,0 0.25,-0.25 0,-0.25 0,-0.5 0,-0.25 0.25,-0.25 0.25,0 0.5,0 0.25,0 0.25,0.25 0,0.25 0.25,0.5 0.25,0.25 0.25,0.5 0,0.25 0,0.5 0,0.25 0.25,0.25 0.25,0 0.25,0.25 0,0.25 0,0 0,-0.25 0,-0.5 0,-0.25 0,-0.5 0,-0.25 0,-0.5 0,-0.25 0.25,-0.5 0.25,-0.25 0.25,-0.5 0,-0.25 0,-0.5 0,-0.25 0,-0.5 Q 53.5,52 53.75,52 54,52 54,51.75 q 0,-0.25 0,-0.5 0,-0.25 0,0 0,0.25 0,0.5 0,0.25 0,0.5 0,0.25 0,0.5 0,0.25 0,0.5 0,0.25 0,0.5 0,0.25 0.25,0.25 0.25,0 0.5,0 0.25,0 0.5,0 0.25,0 0.25,0.25 0,0.25 0.25,0.25 0.25,0 0.5,0 0.25,0 0.25,0.25 0,0.25 0.25,0.5 0.25,0.25 0.25,0.5 0,0.25 0,0.5 0,0.25 0,0 0,-0.25 0,-0.5 0,-0.25 0,-0.5 Q 57,55 56.75,55 56.5,55 56.25,55 56,55 56,54.75 56,54.5 55.75,54.5 q -0.25,0 -0.25,-0.25 0,-0.25 0,-0.5 0,-0.25 0,-0.5 0,-0.25 0,0 0,0.25 0,0.5 0,0.25 0.5,0.25 0.5,0 0.75,0.25 0.25,0.25 0.5,0.25 0.25,0 0.5,0.25 0.25,0.25 0.75,0.5 0.5,0.25 0.75,0.25 0.25,0 0.25,-0.25 Q 59.5,55 59.25,55 59,55 59,54.75 59,54.5 58.75,54.5 58.5,54.5 58.5,54.25 58.5,54 58.25,54 58,54 57.75,54 57.5,54 57.5,53.75 q 0,-0.25 0,-0.5 0,-0.25 0,-0.5 0,-0.25 0.25,-0.25 0.25,0 0.5,-0.5 0.25,-0.5 0.5,-0.75 Q 59,51 59.25,51 q 0.25,0 0.5,-0.25 0.25,-0.25 0.5,-0.25 0.25,0 0.5,0 0.25,0 0.5,0 0.25,0 0.5,0 0.25,0 0.25,0.25 0,0.25 0.25,0.5 0.25,0.25 0.5,0.25 0.25,0 0.25,0.25 0,0.25 0,0.5 0,0.25 0,0.5 0,0.25 0,0.5 0,0.25 0,0.5 0,0.25 -0.25,0.25 -0.25,0 -0.5,0 -0.25,0 -0.5,0 -0.25,0 -0.5,0 -0.25,0 -0.5,0 -0.25,0 -0.5,0 Q 60,54 59.75,53.75 59.5,53.5 59.75,53.5 60,53.5 60,53.25 60,53 60.25,53 q 0.25,0 0.5,0 0.25,0 0.5,0 0.25,0 0.5,0 0.25,0 0.25,0.25 0,0.25 0.25,0.25 0.25,0 0.5,0 0.25,0 0.5,0 0.25,0 0.5,0 0.25,0 0,0 -0.25,0 -0.25,-0.25 0,-0.25 -0.25,-0.25 -0.25,0 -0.5,0 -0.25,0 -0.25,-0.25 0,-0.25 -0.25,-0.25 -0.25,0 -0.5,0 -0.25,0 -0.5,0 -0.25,0 -0.5,0 -0.25,0 -0.5,0 -0.25,0 -0.5,0 -0.25,0 0,0 0.25,0 0.5,0 0.25,0 0.5,0 0.25,0 0.5,0 0.25,0 0.5,0 0.25,0 0.5,0 0.25,0 0.25,0.25 Q 62.5,53 62.25,53 62,53 62,53.25 q 0,0.25 -0.25,0.25 -0.25,0 -0.5,0 Q 61,53.5 61,53.75 61,54 60.75,54 q -0.25,0 -0.25,0.25 0,0.25 0.25,0.25 0.25,0 0.5,0 0.25,0 0.5,0 0.25,0 0.5,0 0.25,0 0.5,0 0.25,0 0.5,0 0.25,0 0.25,0.25 0,0.25 -0.25,0.25 -0.25,0 -0.5,0 -0.25,0 -0.5,0 Q 62,55 62,54.75 q 0,-0.25 0,-0.5 0,-0.25 0,-0.5 0,-0.25 0.25,-0.25 0.25,0 0.5,0 0.25,0 0.25,0.25 0,0.25 0.25,0.25 0.25,0 0.5,0.25 0.25,0.25 0.5,0.25 0.25,0 0.5,0 0.25,0 0.25,0.25 0,0.25 0.25,0.25 0.25,0 0.5,0 0.25,0 0.5,0 0.25,0 0.5,0 0.25,0 0.5,0 0.25,0 0.5,0 Q 68,55 68,54.75 68,54.5 68,54.25 68,54 67.75,54 67.5,54 67.5,53.75 q 0,-0.25 -0.25,-0.25 -0.25,0 -0.5,0 -0.25,0 -0.25,-0.25 Q 66.5,53 66.25,53 66,53 66,52.75 q 0,-0.25 0,0 0,0.25 0,0.5 0,0.25 0,0.5 0,0.25 0.25,0.25 0.25,0 0.5,0 0.25,0 0.25,-0.25 0,-0.25 -0.25,-0.25 -0.25,0 -0.5,0 -0.25,0 -0.5,0 -0.25,0 -0.5,0 -0.25,0 -0.5,0 -0.25,0 -0.25,0.25 0,0.25 0,0.5 0,0.25 0,0.5 0,0.25 0,0.5 0,0.25 0.25,0.25 0.25,0 0.5,0 0.25,0 0.5,0 0.25,0 0.5,0 0.25,0 0.5,0 0.25,0 0.5,0 0.25,0 0.5,0 0.25,0 0,0 -0.25,0 -0.5,0 -0.25,0 -0.5,0 -0.25,0 -0.5,0 -0.25,0 -0.5,0 -0.25,0 -0.5,0 -0.25,0 -0.5,0 -0.25,0 -0.25,0.25 0,0.25 0.25,0.25 0.25,0 0.25,0.25 0,0.25 0.25,0.25 0.25,0 0.25,0.25 Q 65.5,57 65.75,57 66,57 66,56.75 66,56.5 66,56.25 66,56 66.25,56 q 0.25,0 0.25,-0.25 0,-0.25 0.25,-0.25 0.25,0 0.5,0 0.25,0 0.5,0 0.25,0 0.5,0 0.25,0 0.5,0 0.25,0 0.5,0 0.25,0 0.25,-0.25 0,-0.25 -0.25,-0.25 -0.25,0 -0.5,0 -0.25,0 -0.5,0 -0.25,0 -0.5,0 -0.25,0 -0.5,0 -0.25,0 -0.5,0 -0.25,0 -0.5,0 -0.25,0 -0.5,0 -0.25,0 -0.75,0 -0.5,0 -0.75,0 -0.25,0 -0.5,0 -0.25,0 -0.5,0 -0.25,0 -0.5,0 -0.25,0 -0.5,0 -0.25,0 -0.5,0 -0.25,0 -0.5,0 -0.25,0 -0.25,0.25 0,0.25 -0.25,0.25 -0.25,0 -0.5,0 -0.25,0 -0.5,0 -0.25,0 -0.25,0.25 0,0.25 -0.25,0.25 -0.25,0 -0.5,0 -0.25,0 -0.25,0.25 0,0.25 -0.25,0.25 -0.25,0 -0.5,0 -0.25,0 -0.5,0 -0.25,0 -0.5,0 -0.25,0 -0.5,0 -0.25,0 -0.5,0 -0.25,0 -0.25,0.25 0,0.25 -0.25,0.25 -0.25,0 -0.5,0 -0.25,0 -0.5,0 Q 54,57 54,56.75 54,56.5 53.75,56.5 53.5,56.5 53.5,56.25 53.5,56 53.25,56 53,56 52.75,56 52.5,56 52.25,55.75 52,55.5 51.75,55.5 51.5,55.5 51.5,55.25 51.5,55 51.25,55 51,55 51,54.75 q 0,-0.25 0.25,-0.5 0.25,-0.25 0.25,-0.5 0,-0.25 0,-0.5 0,-0.25 0,-0.5 0,-0.25 0.25,-0.25 0.25,0 0.5,0 0.25,0 0.25,-0.25 0,-0.25 0,-0.5 0,-0.25 0.25,-0.25 0.25,0 0.25,-0.25 0,-0.25 0,0 0,0.25 0,0.5 0,0.25 0,0.5 0,0.25 -0.25,0.25 -0.25,0 -0.5,0 -0.25,0 -0.5,0.25 Q 51.5,53 51.25,53 51,53 51,53.25 q 0,0.25 -0.25,0.25 -0.25,0 -0.25,0.25 0,0.25 0,0.5 0,0.25 0,0.75 0,0.5 0,0.75 0,0.25 0.25,0.25 0.25,0 0,0 -0.25,0 -0.5,0 -0.25,0 -0.5,0 -0.25,0 -0.5,0 -0.25,0 -0.5,0 -0.25,0 -0.5,0 Q 48,56 48,55.75 48,55.5 47.75,55.5 h -0.252"
   stroke-linecap="round"
   id="path68" />
</g>
<g
   transform="matrix(1.18,0,0,1,57.69,82.951923)"
   id="g74">
<path
   style="opacity:1;fill:none;fill-rule:nonzero;stroke:#fffdfd;stroke-width:2;stroke-linecap:round;stroke-linejoin:round;stroke-miterlimit:10;stroke-dasharray:none;stroke-dashoffset:0"
   transform="translate(-54.5,-55.5)"
   d="m 54.498,55.5 h 0.004"
   stroke-linecap="round"
   id="path72" />
</g>
<g
   transform="matrix(-0.03,0.03,0.08,0.08,29.62,74.601923)"
   id="g78">
<circle
   style="opacity:1;fill:#fafaf5;fill-rule:nonzero;stroke:#000000;stroke-width:0;stroke-linecap:butt;stroke-linejoin:miter;stroke-miterlimit:4;stroke-dasharray:none;stroke-dashoffset:0"
   vector-effect="non-scaling-stroke"
   cx="0"
   cy="0"
   r="40"
   id="circle76" />
</g>
<g
   transform="translate(55,72.951923)"
   id="g82">
<line
   style="opacity:1;fill:#000000;fill-rule:nonzero;stroke:#000000;stroke-width:2;stroke-linecap:butt;stroke-linejoin:miter;stroke-miterlimit:4;stroke-dasharray:none;stroke-dashoffset:0"
   vector-effect="non-scaling-stroke"
   x1="0"
   y1="0"
   x2="0"
   y2="0"
   id="line80" />
</g>
<g
   transform="matrix(0.03,0.01,-0.03,0.08,82.38,66.081923)"
   id="g86">
<circle
   style="opacity:1;fill:#fafaf5;fill-rule:nonzero;stroke:#000000;stroke-width:0;stroke-linecap:butt;stroke-linejoin:miter;stroke-miterlimit:4;stroke-dasharray:none;stroke-dashoffset:0"
   vector-effect="non-scaling-stroke"
   cx="0"
   cy="0"
   r="40"
   id="circle84" />
</g>
<g
   transform="matrix(0.01,-0.02,-0.06,-0.04,64.79,73.321923)"
   id="g90">
<circle
   style="opacity:1;fill:#fafaf5;fill-rule:nonzero;stroke:#000000;stroke-width:0;stroke-linecap:butt;stroke-linejoin:miter;stroke-miterlimit:4;stroke-dasharray:none;stroke-dashoffset:0"
   vector-effect="non-scaling-stroke"
   cx="0"
   cy="0"
   r="40"
   id="circle88" />
</g>
</svg>
