<?xml version="1.0" encoding="UTF-8" standalone="no"?>
<svg
   version="1.1"
   width="240"
   height="240"
   viewBox="0 0 120 120"
   xml:space="preserve"
   id="svg52"
   sodipodi:docname="Bobber-big-2b.svg"
   inkscape:version="1.1.1 (3bf5ae0d25, 2021-09-20)"
   xmlns:inkscape="http://www.inkscape.org/namespaces/inkscape"
   xmlns:sodipodi="http://sodipodi.sourceforge.net/DTD/sodipodi-0.dtd"
   xmlns="http://www.w3.org/2000/svg"
   xmlns:svg="http://www.w3.org/2000/svg"><sodipodi:namedview
   id="namedview54"
   pagecolor="#ffffff"
   bordercolor="#666666"
   borderopacity="1.0"
   inkscape:pageshadow="2"
   inkscape:pageopacity="0.0"
   inkscape:pagecheckerboard="0"
   showgrid="false"
   inkscape:zoom="3.4666667"
   inkscape:cx="63.028846"
   inkscape:cy="119.85577"
   inkscape:window-width="1920"
   inkscape:window-height="1017"
   inkscape:window-x="-8"
   inkscape:window-y="-8"
   inkscape:window-maximized="1"
   inkscape:current-layer="svg52"><inkscape:grid
     type="xygrid"
     id="grid1420" /></sodipodi:namedview>
<desc
   id="desc2">Created with Fabric.js 3.6.3</desc>
<defs
   id="defs4">
</defs>

<g
   transform="translate(59.3,82.925385)"
   id="g10">
<path
   style="opacity:1;fill:#191915;fill-opacity:0;fill-rule:nonzero;stroke:#ffffff;stroke-width:1;stroke-linecap:butt;stroke-linejoin:miter;stroke-miterlimit:4;stroke-dasharray:none;stroke-dashoffset:0"
   transform="translate(-58.81,-92.81)"
   d="m 29,82.5 q -29.5,9 12,20.5 22.5,3.5 39.5,0 36.5,-5.5 11,-21 l -3,-2"
   stroke-linecap="round"
   id="path8" />
</g>
<g
   transform="matrix(1.06,0,0,1.07,59.68,85.285385)"
   id="g14"
   style="stroke:#7183b5;stroke-opacity:1">
<path
   style="opacity:1;fill:none;fill-rule:nonzero;stroke:#7183b5;stroke-width:3;stroke-linecap:butt;stroke-linejoin:miter;stroke-miterlimit:4;stroke-dasharray:none;stroke-dashoffset:0;stroke-opacity:1"
   transform="translate(-59.45,-92.98)"
   d="m 28,79 q -34,12 9,25.5 23,5 45.5,1.5 Q 125,97 90,77.5"
   stroke-linecap="round"
   id="path12" />
</g>
<g
   transform="matrix(0.95,0,0,1,60.32,81.645385)"
   id="g18"
   style="stroke:#7b86a6;stroke-opacity:1">
<path
   style="opacity:1;fill:none;fill-rule:nonzero;stroke:#7b86a6;stroke-width:3;stroke-linecap:butt;stroke-linejoin:miter;stroke-miterlimit:4;stroke-dasharray:none;stroke-dashoffset:0;stroke-opacity:1"
   transform="translate(-59.79,-90.53)"
   d="m 26.5,84.5 q -21.5,7 23.5,13 13,2 24.5,0.5 40,-4 17,-16"
   stroke-linecap="round"
   id="path16" />
</g>
<g
   transform="matrix(-0.81,0,0,1.1135532,60.03,60.195359)"
   id="g22">
<path
   style="opacity:1;fill:#dc2a2d;fill-opacity:0.93;fill-rule:nonzero;stroke:#ffffff;stroke-width:1;stroke-linecap:butt;stroke-linejoin:miter;stroke-miterlimit:4;stroke-dasharray:none;stroke-dashoffset:0"
   transform="translate(-48,-48)"
   d="M 9.113,65.022 C 11.683,45.575 28.302,30.978 48,30.978 c 19.696,0 36.316,14.598 38.887,34.045 H 9.113 Z"
   stroke-linecap="round"
   id="path20" />
</g>
<g
   transform="matrix(0.92,0,0,0.88,60.47,81.065385)"
   id="g26">
<path
   style="opacity:1;fill:none;fill-rule:nonzero;stroke:#ffffff;stroke-width:1;stroke-linecap:butt;stroke-linejoin:miter;stroke-miterlimit:4;stroke-dasharray:none;stroke-dashoffset:0"
   transform="translate(-59.79,-90.53)"
   d="m 26.5,84.5 q -21.5,7 23.5,13 13,2 24.5,0.5 40,-4 17,-16"
   stroke-linecap="round"
   id="path24" />
</g>
<g
   transform="matrix(1.03,0,0,0.96,59.53,84.595385)"
   id="g30">
<path
   style="opacity:1;fill:none;fill-rule:nonzero;stroke:#ffffff;stroke-width:1;stroke-linecap:butt;stroke-linejoin:miter;stroke-miterlimit:4;stroke-dasharray:none;stroke-dashoffset:0"
   transform="translate(-59.45,-92.98)"
   d="m 28,79 q -34,12 9,25.5 23,5 45.5,1.5 Q 125,97 90,77.5"
   stroke-linecap="round"
   id="path28" />
</g>
<g
   transform="matrix(1.01,0,0,0.62,59.81,76.145385)"
   id="g34">
<path
   style="opacity:1;fill:#ffffff;fill-rule:nonzero;stroke:#ffffff;stroke-width:1;stroke-linecap:butt;stroke-linejoin:miter;stroke-miterlimit:4;stroke-dasharray:none;stroke-dashoffset:0"
   transform="translate(-57.5,-74)"
   d="M 27,80 28,68 87.5,68.5 88,79.5 27,80"
   stroke-linecap="round"
   id="path32" />
</g>
<g
   transform="translate(27,68.145385)"
   id="g38">
<path
   style="opacity:1;fill:none;fill-rule:nonzero;stroke:#ffffff;stroke-width:2;stroke-linecap:round;stroke-linejoin:round;stroke-miterlimit:10;stroke-dasharray:none;stroke-dashoffset:0"
   transform="translate(-20,-43.53)"
   d="M 18,46.002 Q 18,46 17.75,46 17.5,46 17.5,45.75 q 0,-0.25 0,-0.5 0,-0.25 0,-0.5 0,-0.25 0,-0.5 0,-0.25 0.25,-0.25 0.25,0 0.5,0 0.25,0 0.5,0 0.25,0 0.5,0 0.25,0 0.25,0.25 0,0.25 0.25,0.25 0.25,0 0.25,0.25 0,0.25 0,0.5 0,0.25 -0.25,0.25 -0.25,0 -0.5,0 -0.25,0 -0.25,0.25 0,0.25 0,0.5 0,0.25 -0.25,0.25 -0.25,0 0,0 Q 19,46.5 19,46.25 19,46 19.25,46 q 0.25,0 0.25,-0.25 0,-0.25 0,-0.5 0,-0.25 0,-0.5 0,-0.25 0,-0.5 0,-0.25 0,-0.5 0,-0.25 0,-0.5 0,-0.25 0,-0.5 0,-0.25 0.25,-0.25 0.25,0 0.25,0.25 0,0.25 0.25,0.25 0.25,0 0.5,0 0.25,0 0.25,0.25 0,0.25 0.25,0.25 0.25,0 0.25,0.25 Q 21.5,44 21.75,44 22,44 22,43.75 22,43.5 21.75,43.5 21.5,43.5 21.5,43.25 21.5,43 21.25,43 q -0.25,0 0,0 0.25,0 0.5,0 0.25,0 0.5,0 0.25,0 0.25,-0.25 0,-0.25 0,-0.5 0,-0.25 0,-0.5 0,-0.25 0,-0.5 0,-0.25 0,-0.5 0,-0.25 0,0 0,0.25 0,0.5 0,0.25 0,0.5 0,0.25 0,0.5 0,0.25 -0.25,0.25 -0.25,0 -0.5,0 -0.25,0 -0.5,0 -0.25,0 -0.25,0.25 0,0.25 0,0.5 0,0.25 0,0.5 0,0.25 0,0.5 v 0.252"
   stroke-linecap="round"
   id="path36" />
</g>
<g
   transform="matrix(-1,0,0,1,92.5,66.645385)"
   id="g42">
<path
   style="opacity:1;fill:none;fill-rule:nonzero;stroke:#ffffff;stroke-width:2;stroke-linecap:round;stroke-linejoin:round;stroke-miterlimit:10;stroke-dasharray:none;stroke-dashoffset:0"
   transform="translate(-20,-43.53)"
   d="M 18,46.002 Q 18,46 17.75,46 17.5,46 17.5,45.75 q 0,-0.25 0,-0.5 0,-0.25 0,-0.5 0,-0.25 0,-0.5 0,-0.25 0.25,-0.25 0.25,0 0.5,0 0.25,0 0.5,0 0.25,0 0.5,0 0.25,0 0.25,0.25 0,0.25 0.25,0.25 0.25,0 0.25,0.25 0,0.25 0,0.5 0,0.25 -0.25,0.25 -0.25,0 -0.5,0 -0.25,0 -0.25,0.25 0,0.25 0,0.5 0,0.25 -0.25,0.25 -0.25,0 0,0 Q 19,46.5 19,46.25 19,46 19.25,46 q 0.25,0 0.25,-0.25 0,-0.25 0,-0.5 0,-0.25 0,-0.5 0,-0.25 0,-0.5 0,-0.25 0,-0.5 0,-0.25 0,-0.5 0,-0.25 0,-0.5 0,-0.25 0.25,-0.25 0.25,0 0.25,0.25 0,0.25 0.25,0.25 0.25,0 0.5,0 0.25,0 0.25,0.25 0,0.25 0.25,0.25 0.25,0 0.25,0.25 Q 21.5,44 21.75,44 22,44 22,43.75 22,43.5 21.75,43.5 21.5,43.5 21.5,43.25 21.5,43 21.25,43 q -0.25,0 0,0 0.25,0 0.5,0 0.25,0 0.5,0 0.25,0 0.25,-0.25 0,-0.25 0,-0.5 0,-0.25 0,-0.5 0,-0.25 0,-0.5 0,-0.25 0,-0.5 0,-0.25 0,0 0,0.25 0,0.5 0,0.25 0,0.5 0,0.25 0,0.5 0,0.25 -0.25,0.25 -0.25,0 -0.5,0 -0.25,0 -0.5,0 -0.25,0 -0.25,0.25 0,0.25 0,0.5 0,0.25 0,0.5 0,0.25 0,0.5 v 0.252"
   stroke-linecap="round"
   id="path40" />
</g>
<g
   transform="matrix(0.02,-0.02,0.05,0.07,21.23,63.745385)"
   id="g46">
<circle
   style="opacity:1;fill:#fafaf5;fill-rule:nonzero;stroke:#000000;stroke-width:0;stroke-linecap:butt;stroke-linejoin:miter;stroke-miterlimit:4;stroke-dasharray:none;stroke-dashoffset:0"
   vector-effect="non-scaling-stroke"
   cx="0"
   cy="0"
   r="40"
   id="circle44" />
</g>
<g
   transform="matrix(0.03,0.02,-0.05,0.08,98.38,61.745385)"
   id="g50">
<circle
   style="opacity:1;fill:#fafaf5;fill-rule:nonzero;stroke:#000000;stroke-width:0;stroke-linecap:butt;stroke-linejoin:miter;stroke-miterlimit:4;stroke-dasharray:none;stroke-dashoffset:0"
   vector-effect="non-scaling-stroke"
   cx="0"
   cy="0"
   r="40"
   id="circle48" />
</g>
</svg>
