<?xml version="1.0" encoding="UTF-8" standalone="no"?>
<svg
   version="1.1"
   width="480"
   height="480"
   viewBox="0 0 480 480"
   xml:space="preserve"
   id="svg721"
   sodipodi:docname="Fisherman-1.svg"
   inkscape:version="1.1.1 (3bf5ae0d25, 2021-09-20)"
   xmlns:inkscape="http://www.inkscape.org/namespaces/inkscape"
   xmlns:sodipodi="http://sodipodi.sourceforge.net/DTD/sodipodi-0.dtd"
   xmlns="http://www.w3.org/2000/svg"
   xmlns:svg="http://www.w3.org/2000/svg"><sodipodi:namedview
   id="namedview723"
   pagecolor="#ffffff"
   bordercolor="#666666"
   borderopacity="1.0"
   inkscape:pageshadow="2"
   inkscape:pageopacity="0.0"
   inkscape:pagecheckerboard="0"
   showgrid="false"
   inkscape:zoom="1.653125"
   inkscape:cx="200.5293"
   inkscape:cy="264.65028"
   inkscape:window-width="1920"
   inkscape:window-height="1017"
   inkscape:window-x="-8"
   inkscape:window-y="-8"
   inkscape:window-maximized="1"
   inkscape:current-layer="svg721"><inkscape:grid
     type="xygrid"
     id="grid725" /></sodipodi:namedview>
<desc
   id="desc665">Created with Fabric.js 3.6.3</desc>
<defs
   id="defs667">
</defs>
<g
   transform="matrix(0.02767386,0.18892258,-0.68963251,0.13559884,193.51317,196.00301)"
   id="g13330"
   style="fill:#12320a;fill-opacity:1">
<polygon
   style="opacity:1;fill:#12320a;fill-opacity:1;fill-rule:nonzero;stroke:#000000;stroke-width:8;stroke-linecap:butt;stroke-linejoin:miter;stroke-miterlimit:4;stroke-dasharray:none;stroke-dashoffset:0"
   vector-effect="non-scaling-stroke"
   points="50,-50 -25,-50 -50,50 25,50 "
   id="polygon13328" />
</g><g
   transform="matrix(0.82234284,0,0,1.7,127.8817,238.81)"
   id="g671"
   style="fill:#12320a;fill-opacity:1">
<polygon
   style="opacity:1;fill:#12320a;fill-rule:nonzero;stroke:#000000;stroke-width:8;stroke-linecap:butt;stroke-linejoin:miter;stroke-miterlimit:4;stroke-dasharray:none;stroke-dashoffset:0;fill-opacity:1"
   vector-effect="non-scaling-stroke"
   points="50,50 50,-50 -50,-50 -50,50 "
   id="polygon669" />
</g>
<g
   transform="matrix(1.1923972,0,0,1.45,128.44089,103)"
   id="g675"
   style="fill:#a05a2c">
<polygon
   style="opacity:1;fill:#a05a2c;fill-rule:nonzero;stroke:#000000;stroke-width:8;stroke-linecap:butt;stroke-linejoin:miter;stroke-miterlimit:4;stroke-dasharray:none;stroke-dashoffset:0"
   vector-effect="non-scaling-stroke"
   points="-19.9,-34.5 19.9,-34.5 39.8,0 19.9,34.5 -19.9,34.5 -39.8,0 "
   id="polygon673" />
</g>
<g
   transform="matrix(-0.48518228,0,0,0.77,150.68526,369.22)"
   id="g679"
   style="fill:#37483e">
<polygon
   style="opacity:1;fill:#37483e;fill-rule:nonzero;stroke:#000000;stroke-width:8;stroke-linecap:butt;stroke-linejoin:miter;stroke-miterlimit:4;stroke-dasharray:none;stroke-dashoffset:0"
   vector-effect="non-scaling-stroke"
   points="25,50 50,-50 -25,-50 -50,50 "
   id="polygon677" />
</g>
<g
   transform="matrix(-0.41939485,0,0,0.77,108.69644,369.17)"
   id="g683"
   style="fill:#37483e">
<polygon
   style="opacity:1;fill:#37483e;fill-rule:nonzero;stroke:#000000;stroke-width:8;stroke-linecap:butt;stroke-linejoin:miter;stroke-miterlimit:4;stroke-dasharray:none;stroke-dashoffset:0"
   vector-effect="non-scaling-stroke"
   points="25,50 50,-50 -25,-50 -50,50 "
   id="polygon681" />
</g>
<g
   transform="matrix(0.45228857,0,0,0.56,150.68526,437.66)"
   id="g687"
   style="fill:#37483e">
<polygon
   style="opacity:1;fill:#37483e;fill-rule:nonzero;stroke:#000000;stroke-width:8;stroke-linecap:butt;stroke-linejoin:miter;stroke-miterlimit:4;stroke-dasharray:none;stroke-dashoffset:0"
   vector-effect="non-scaling-stroke"
   points="25,50 50,-50 -25,-50 -50,50 "
   id="polygon685" />
</g>
<g
   transform="matrix(0.41939485,0,0,0.67,108.82802,440.18)"
   id="g691"
   style="fill:#37483e">
<polygon
   style="opacity:1;fill:#37483e;fill-rule:nonzero;stroke:#000000;stroke-width:8;stroke-linecap:butt;stroke-linejoin:miter;stroke-miterlimit:4;stroke-dasharray:none;stroke-dashoffset:0"
   vector-effect="non-scaling-stroke"
   points="25,50 50,-50 -25,-50 -50,50 "
   id="polygon689" />
</g>
<g
   transform="matrix(0.12335143,0.22,-0.68254455,0.56,196.25951,218)"
   id="g695"
   style="fill:#12320a;fill-opacity:1">
<polygon
   style="opacity:1;fill:#12320a;fill-rule:nonzero;stroke:#000000;stroke-width:8;stroke-linecap:butt;stroke-linejoin:miter;stroke-miterlimit:4;stroke-dasharray:none;stroke-dashoffset:0;fill-opacity:1"
   vector-effect="non-scaling-stroke"
   points="25,50 50,-50 -25,-50 -50,50 "
   id="polygon693" />
</g>
<g
   transform="matrix(0.82234284,0,0,1,311.53553,150.88)"
   id="g699">
<path
   style="opacity:1;fill:none;fill-rule:nonzero;stroke:#000000;stroke-width:4;stroke-linecap:butt;stroke-linejoin:miter;stroke-miterlimit:4;stroke-dasharray:none;stroke-dashoffset:0"
   vector-effect="non-scaling-stroke"
   transform="translate(-524.33,-148.88)"
   d="m 428.33331,183.66666 q 114,-79 192,-57"
   stroke-linecap="round"
   id="path697" />
</g>
<g
   transform="matrix(0.057564,0,0,0.07,272.4249,160.77)"
   id="g703">
<circle
   style="opacity:1;fill:none;fill-rule:nonzero;stroke:#000000;stroke-width:2;stroke-linecap:butt;stroke-linejoin:miter;stroke-miterlimit:4;stroke-dasharray:none;stroke-dashoffset:0"
   vector-effect="non-scaling-stroke"
   cx="0"
   cy="0"
   r="40"
   id="circle701" />
</g>
<g
   transform="matrix(0.18913886,0,0,0.23,247.1872,189.08)"
   id="g707"
   style="fill:#e6e6e6">
<path
   style="opacity:1;fill:#e6e6e6;fill-rule:nonzero;stroke:#000000;stroke-width:4;stroke-linecap:butt;stroke-linejoin:miter;stroke-miterlimit:4;stroke-dasharray:none;stroke-dashoffset:0"
   vector-effect="non-scaling-stroke"
   transform="translate(-51.83,-51.83)"
   d="m 0,51.82677 v 0 C 0,23.203635 23.203636,0 51.82677,0 v 0 c 13.745312,0 26.927654,5.4603047 36.64706,15.17971 9.719406,9.719404 15.17971,22.901749 15.17971,36.64706 v 0 c 0,28.623135 -23.203636,51.82677 -51.82677,51.82677 v 0 C 23.203635,103.65354 0,80.449904 0,51.82677 Z m 25.913385,0 v 0 c 0,14.311565 11.60182,25.913387 25.913385,25.913387 14.311565,0 25.913387,-11.601822 25.913387,-25.913387 0,-14.311565 -11.601822,-25.913385 -25.913387,-25.913385 v 0 c -14.311565,0 -25.913385,11.60182 -25.913385,25.913385 z"
   stroke-linecap="round"
   id="path705" />
</g>
<g
   transform="matrix(0.057564,0,0,0.07,312.74437,137.8)"
   id="g711">
<circle
   style="opacity:1;fill:none;fill-rule:nonzero;stroke:#000000;stroke-width:2;stroke-linecap:butt;stroke-linejoin:miter;stroke-miterlimit:4;stroke-dasharray:none;stroke-dashoffset:0"
   vector-effect="non-scaling-stroke"
   cx="0"
   cy="0"
   r="40"
   id="circle709" />
</g>
<g
   transform="matrix(0.057564,0,0,0.07,358.79557,127.8)"
   id="g715">
<circle
   style="opacity:1;fill:none;fill-rule:nonzero;stroke:#000000;stroke-width:2;stroke-linecap:butt;stroke-linejoin:miter;stroke-miterlimit:4;stroke-dasharray:none;stroke-dashoffset:0"
   vector-effect="non-scaling-stroke"
   cx="0"
   cy="0"
   r="40"
   id="circle713" />
</g>
<g
   transform="matrix(0.057564,0,0,0.07,389.22226,131.8)"
   id="g719">
<circle
   style="opacity:1;fill:none;fill-rule:nonzero;stroke:#000000;stroke-width:2;stroke-linecap:butt;stroke-linejoin:miter;stroke-miterlimit:4;stroke-dasharray:none;stroke-dashoffset:0"
   vector-effect="non-scaling-stroke"
   cx="0"
   cy="0"
   r="40"
   id="circle717" />
</g>
<path
   style="fill:#12320a;fill-opacity:1;stroke:#000000;stroke-width:4.075;stroke-linecap:butt;stroke-linejoin:miter;stroke-miterlimit:4;stroke-dasharray:none;stroke-opacity:1"
   d="m 86.363288,154.89176 83.479062,-0.68768 c 0,0 17.97119,-52.95074 -0.5797,-33.69594 -18.55091,19.25483 -103.189408,26.13155 -82.899362,0 20.290042,-26.131529 0,34.38362 0,34.38362 z"
   id="path13677" /></svg>
