<?xml version="1.0" encoding="UTF-8" standalone="no"?>
<svg
   version="1.1"
   width="480"
   height="480"
   viewBox="0 0 480 480"
   xml:space="preserve"
   id="svg721"
   sodipodi:docname="Fisherman-4.svg"
   inkscape:version="1.1.1 (3bf5ae0d25, 2021-09-20)"
   xmlns:inkscape="http://www.inkscape.org/namespaces/inkscape"
   xmlns:sodipodi="http://sodipodi.sourceforge.net/DTD/sodipodi-0.dtd"
   xmlns="http://www.w3.org/2000/svg"
   xmlns:svg="http://www.w3.org/2000/svg"><sodipodi:namedview
   id="namedview723"
   pagecolor="#ffffff"
   bordercolor="#666666"
   borderopacity="1.0"
   inkscape:pageshadow="2"
   inkscape:pageopacity="0.0"
   inkscape:pagecheckerboard="0"
   showgrid="false"
   inkscape:zoom="1.653125"
   inkscape:cx="521.13422"
   inkscape:cy="251.34216"
   inkscape:window-width="1920"
   inkscape:window-height="1017"
   inkscape:window-x="-8"
   inkscape:window-y="-8"
   inkscape:window-maximized="1"
   inkscape:current-layer="svg721"><inkscape:grid
     type="xygrid"
     id="grid725" /></sodipodi:namedview>
<desc
   id="desc665">Created with Fabric.js 3.6.3</desc>
<defs
   id="defs667">
</defs>
<g
   transform="matrix(0.15708025,0.10855128,-0.3709514,0.5969716,165.08216,191.16369)"
   id="g13330"
   style="fill:#12320a;fill-opacity:1">
<polygon
   style="opacity:1;fill:#12320a;fill-opacity:1;fill-rule:nonzero;stroke:#000000;stroke-width:8;stroke-linecap:butt;stroke-linejoin:miter;stroke-miterlimit:4;stroke-dasharray:none;stroke-dashoffset:0"
   vector-effect="non-scaling-stroke"
   points="-50,50 25,50 50,-50 -25,-50 "
   id="polygon13328" />
</g><g
   transform="matrix(0.84947975,-0.02379236,0.05082946,1.6992883,129.33798,240.01983)"
   id="g671"
   style="fill:#12320a;fill-opacity:1">
<polygon
   style="opacity:1;fill:#12320a;fill-opacity:1;fill-rule:nonzero;stroke:#000000;stroke-width:8;stroke-linecap:butt;stroke-linejoin:miter;stroke-miterlimit:4;stroke-dasharray:none;stroke-dashoffset:0"
   vector-effect="non-scaling-stroke"
   points="-50,50 50,50 50,-50 -50,-50 "
   id="polygon669" />
</g>
<g
   transform="matrix(1.1923972,0,0,1.45,128.44089,103)"
   id="g675"
   style="fill:#a05a2c">
<polygon
   style="opacity:1;fill:#a05a2c;fill-rule:nonzero;stroke:#000000;stroke-width:8;stroke-linecap:butt;stroke-linejoin:miter;stroke-miterlimit:4;stroke-dasharray:none;stroke-dashoffset:0"
   vector-effect="non-scaling-stroke"
   points="-19.9,-34.5 19.9,-34.5 39.8,0 19.9,34.5 -19.9,34.5 -39.8,0 "
   id="polygon673" />
</g>
<g
   transform="matrix(-0.48518228,0,0,0.77,156.12949,368.01017)"
   id="g679"
   style="fill:#37483e">
<polygon
   style="opacity:1;fill:#37483e;fill-rule:nonzero;stroke:#000000;stroke-width:8;stroke-linecap:butt;stroke-linejoin:miter;stroke-miterlimit:4;stroke-dasharray:none;stroke-dashoffset:0"
   vector-effect="non-scaling-stroke"
   points="50,-50 -25,-50 -50,50 25,50 "
   id="polygon677" />
</g>
<g
   transform="matrix(-0.41939485,0,0,0.77,112.93084,369.17)"
   id="g683"
   style="fill:#37483e">
<polygon
   style="opacity:1;fill:#37483e;fill-rule:nonzero;stroke:#000000;stroke-width:8;stroke-linecap:butt;stroke-linejoin:miter;stroke-miterlimit:4;stroke-dasharray:none;stroke-dashoffset:0"
   vector-effect="non-scaling-stroke"
   points="50,-50 -25,-50 -50,50 25,50 "
   id="polygon681" />
</g>
<g
   transform="matrix(0.48518234,0,0,0.57160288,156.12949,435.09031)"
   id="g687"
   style="fill:#37483e">
<polygon
   style="opacity:1;fill:#37483e;fill-rule:nonzero;stroke:#000000;stroke-width:8;stroke-linecap:butt;stroke-linejoin:miter;stroke-miterlimit:4;stroke-dasharray:none;stroke-dashoffset:0"
   vector-effect="non-scaling-stroke"
   points="-50,50 25,50 50,-50 -25,-50 "
   id="polygon685" />
</g>
<g
   transform="matrix(0.41939485,0,0,0.67,112.93084,441.17)"
   id="g691"
   style="fill:#37483e">
<polygon
   style="opacity:1;fill:#37483e;fill-rule:nonzero;stroke:#000000;stroke-width:8;stroke-linecap:butt;stroke-linejoin:miter;stroke-miterlimit:4;stroke-dasharray:none;stroke-dashoffset:0"
   vector-effect="non-scaling-stroke"
   points="50,-50 -25,-50 -50,50 25,50 "
   id="polygon689" />
</g>
<g
   transform="matrix(0.21938194,0.16145606,-0.29217912,0.87140031,180.15837,207.06532)"
   id="g695"
   style="fill:#12320a;fill-opacity:1">
<polygon
   style="opacity:1;fill:#12320a;fill-opacity:1;fill-rule:nonzero;stroke:#000000;stroke-width:8;stroke-linecap:butt;stroke-linejoin:miter;stroke-miterlimit:4;stroke-dasharray:none;stroke-dashoffset:0"
   vector-effect="non-scaling-stroke"
   points="25,50 50,-50 -25,-50 -50,50 "
   id="polygon693" />
</g>
<g
   transform="matrix(-0.01043981,-0.71247391,-0.64128606,0.54638984,218.36829,81.873321)"
   id="g699">
<path
   style="opacity:1;fill:none;fill-rule:nonzero;stroke:#000000;stroke-width:4;stroke-linecap:butt;stroke-linejoin:miter;stroke-miterlimit:4;stroke-dasharray:none;stroke-dashoffset:0"
   vector-effect="non-scaling-stroke"
   transform="translate(-524.33,-148.88)"
   d="m 428.33331,183.66666 q 114,-79 192,-57"
   stroke-linecap="round"
   id="path697" />
</g>
<g
   transform="matrix(-7.3077836e-4,-0.04987318,-0.04489003,0.03824729,212.52249,121.16237)"
   id="g703">
<circle
   style="opacity:1;fill:none;fill-rule:nonzero;stroke:#000000;stroke-width:2;stroke-linecap:butt;stroke-linejoin:miter;stroke-miterlimit:4;stroke-dasharray:none;stroke-dashoffset:0"
   vector-effect="non-scaling-stroke"
   cx="0"
   cy="0"
   r="40"
   id="circle701" />
</g>
<g
   transform="matrix(-0.00240114,-0.163869,-0.14749579,0.12566966,194.68807,158.4965)"
   id="g707"
   style="fill:#e6e6e6">
<path
   style="opacity:1;fill:#e6e6e6;fill-rule:nonzero;stroke:#000000;stroke-width:4;stroke-linecap:butt;stroke-linejoin:miter;stroke-miterlimit:4;stroke-dasharray:none;stroke-dashoffset:0"
   vector-effect="non-scaling-stroke"
   transform="translate(-51.83,-51.83)"
   d="m 0,51.82677 v 0 C 0,23.203635 23.203636,0 51.82677,0 v 0 c 13.745312,0 26.927654,5.4603047 36.64706,15.17971 9.719406,9.719404 15.17971,22.901749 15.17971,36.64706 v 0 c 0,28.623135 -23.203636,51.82677 -51.82677,51.82677 v 0 C 23.203635,103.65354 0,80.449904 0,51.82677 Z m 25.913385,0 v 0 c 0,14.311565 11.60182,25.913387 25.913385,25.913387 14.311565,0 25.913387,-11.601822 25.913387,-25.913387 0,-14.311565 -11.601822,-25.913385 -25.913387,-25.913385 v 0 c -14.311565,0 -25.913385,11.60182 -25.913385,25.913385 z"
   stroke-linecap="round"
   id="path705" />
</g>
<g
   transform="matrix(-7.3077836e-4,-0.04987318,-0.04489003,0.03824729,226.74095,73.679221)"
   id="g711">
<circle
   style="opacity:1;fill:none;fill-rule:nonzero;stroke:#000000;stroke-width:2;stroke-linecap:butt;stroke-linejoin:miter;stroke-miterlimit:4;stroke-dasharray:none;stroke-dashoffset:0"
   vector-effect="non-scaling-stroke"
   cx="0"
   cy="0"
   r="40"
   id="circle709" />
</g>
<g
   transform="matrix(-7.3077836e-4,-0.04987318,-0.04489003,0.03824729,232.5692,28.316784)"
   id="g715">
<circle
   style="opacity:1;fill:none;fill-rule:nonzero;stroke:#000000;stroke-width:2;stroke-linecap:butt;stroke-linejoin:miter;stroke-miterlimit:4;stroke-dasharray:none;stroke-dashoffset:0"
   vector-effect="non-scaling-stroke"
   cx="0"
   cy="0"
   r="40"
   id="circle713" />
</g>
<g
   transform="matrix(-7.3077836e-4,-0.04987318,-0.04489003,0.03824729,229.61779,4.1408008)"
   id="g719">
<circle
   style="opacity:1;fill:none;fill-rule:nonzero;stroke:#000000;stroke-width:2;stroke-linecap:butt;stroke-linejoin:miter;stroke-miterlimit:4;stroke-dasharray:none;stroke-dashoffset:0"
   vector-effect="non-scaling-stroke"
   cx="0"
   cy="0"
   r="40"
   id="circle717" />
</g>
<path
   style="fill:#12320a;fill-opacity:1;stroke:#000000;stroke-width:4.13074;stroke-linecap:round;stroke-linejoin:round;stroke-miterlimit:4;stroke-dasharray:none;stroke-opacity:1"
   d="m 85.148659,154.89176 85.778561,-0.68768 c 0,0 18.46622,-52.95074 -0.59567,-33.69594 -19.06191,19.25483 -106.031842,26.13155 -85.182891,0 20.848951,-26.131529 0,34.38362 0,34.38362 z"
   id="path13677" /></svg>
