<?xml version="1.0" encoding="UTF-8" standalone="no"?>
<svg
   version="1.1"
   width="480"
   height="480"
   viewBox="0 0 480 480"
   xml:space="preserve"
   id="svg721"
   sodipodi:docname="Fisherman-2.svg"
   inkscape:version="1.1.1 (3bf5ae0d25, 2021-09-20)"
   xmlns:inkscape="http://www.inkscape.org/namespaces/inkscape"
   xmlns:sodipodi="http://sodipodi.sourceforge.net/DTD/sodipodi-0.dtd"
   xmlns="http://www.w3.org/2000/svg"
   xmlns:svg="http://www.w3.org/2000/svg"><sodipodi:namedview
   id="namedview723"
   pagecolor="#ffffff"
   bordercolor="#666666"
   borderopacity="1.0"
   inkscape:pageshadow="2"
   inkscape:pageopacity="0.0"
   inkscape:pagecheckerboard="0"
   showgrid="false"
   inkscape:zoom="1.653125"
   inkscape:cx="521.13422"
   inkscape:cy="251.34216"
   inkscape:window-width="1920"
   inkscape:window-height="1017"
   inkscape:window-x="-8"
   inkscape:window-y="-8"
   inkscape:window-maximized="1"
   inkscape:current-layer="svg721"><inkscape:grid
     type="xygrid"
     id="grid725" /></sodipodi:namedview>
<desc
   id="desc665">Created with Fabric.js 3.6.3</desc>
<defs
   id="defs667">
</defs>
<g
   transform="matrix(0.10573168,0.15899181,-0.56560194,0.41722234,169.31657,194.79318)"
   id="g13330"
   style="fill:#12320a;fill-opacity:1">
<polygon
   style="opacity:1;fill:#12320a;fill-opacity:1;fill-rule:nonzero;stroke:#000000;stroke-width:8;stroke-linecap:butt;stroke-linejoin:miter;stroke-miterlimit:4;stroke-dasharray:none;stroke-dashoffset:0"
   vector-effect="non-scaling-stroke"
   points="25,50 50,-50 -25,-50 -50,50 "
   id="polygon13328" />
</g><g
   transform="matrix(0.82234284,0,0,1.7,127.8817,238.81)"
   id="g671"
   style="fill:#12320a;fill-opacity:1">
<polygon
   style="opacity:1;fill:#12320a;fill-rule:nonzero;stroke:#000000;stroke-width:8;stroke-linecap:butt;stroke-linejoin:miter;stroke-miterlimit:4;stroke-dasharray:none;stroke-dashoffset:0;fill-opacity:1"
   vector-effect="non-scaling-stroke"
   points="50,50 50,-50 -50,-50 -50,50 "
   id="polygon669" />
</g>
<g
   transform="matrix(1.1923972,0,0,1.45,128.44089,103)"
   id="g675"
   style="fill:#a05a2c">
<polygon
   style="opacity:1;fill:#a05a2c;fill-rule:nonzero;stroke:#000000;stroke-width:8;stroke-linecap:butt;stroke-linejoin:miter;stroke-miterlimit:4;stroke-dasharray:none;stroke-dashoffset:0"
   vector-effect="non-scaling-stroke"
   points="-19.9,-34.5 19.9,-34.5 39.8,0 19.9,34.5 -19.9,34.5 -39.8,0 "
   id="polygon673" />
</g>
<g
   transform="matrix(-0.48373895,-0.03739613,-0.05934887,0.76770939,150.68526,369.22)"
   id="g679"
   style="fill:#37483e">
<polygon
   style="opacity:1;fill:#37483e;fill-rule:nonzero;stroke:#000000;stroke-width:8;stroke-linecap:butt;stroke-linejoin:miter;stroke-miterlimit:4;stroke-dasharray:none;stroke-dashoffset:0"
   vector-effect="non-scaling-stroke"
   points="50,-50 -25,-50 -50,50 25,50 "
   id="polygon677" />
</g>
<g
   transform="matrix(-0.41856532,-0.02636503,-0.04840563,0.768477,108.69644,369.17)"
   id="g683"
   style="fill:#37483e">
<polygon
   style="opacity:1;fill:#37483e;fill-rule:nonzero;stroke:#000000;stroke-width:8;stroke-linecap:butt;stroke-linejoin:miter;stroke-miterlimit:4;stroke-dasharray:none;stroke-dashoffset:0"
   vector-effect="non-scaling-stroke"
   points="50,-50 -25,-50 -50,50 25,50 "
   id="polygon681" />
</g>
<g
   transform="matrix(0.47459563,-0.01239366,0.01520635,0.59298382,148.86832,440.41364)"
   id="g687"
   style="fill:#37483e">
<polygon
   style="opacity:1;fill:#37483e;fill-rule:nonzero;stroke:#000000;stroke-width:8;stroke-linecap:butt;stroke-linejoin:miter;stroke-miterlimit:4;stroke-dasharray:none;stroke-dashoffset:0"
   vector-effect="non-scaling-stroke"
   points="50,-50 -25,-50 -50,50 25,50 "
   id="polygon685" />
</g>
<g
   transform="matrix(0.41850497,-0.02730616,0.04362268,0.66857839,108.82802,440.18)"
   id="g691"
   style="fill:#37483e">
<polygon
   style="opacity:1;fill:#37483e;fill-rule:nonzero;stroke:#000000;stroke-width:8;stroke-linecap:butt;stroke-linejoin:miter;stroke-miterlimit:4;stroke-dasharray:none;stroke-dashoffset:0"
   vector-effect="non-scaling-stroke"
   points="50,-50 -25,-50 -50,50 25,50 "
   id="polygon689" />
</g>
<g
   transform="matrix(0.19751249,0.16675059,-0.41601358,0.78799867,182.71999,210.5014)"
   id="g695"
   style="fill:#12320a;fill-opacity:1">
<polygon
   style="opacity:1;fill:#12320a;fill-opacity:1;fill-rule:nonzero;stroke:#000000;stroke-width:8;stroke-linecap:butt;stroke-linejoin:miter;stroke-miterlimit:4;stroke-dasharray:none;stroke-dashoffset:0"
   vector-effect="non-scaling-stroke"
   points="-25,-50 -50,50 25,50 50,-50 "
   id="polygon693" />
</g>
<g
   transform="matrix(0.60915252,-0.2612616,0.10551486,0.9647824,256.77082,108.84247)"
   id="g699">
<path
   style="opacity:1;fill:none;fill-rule:nonzero;stroke:#000000;stroke-width:4;stroke-linecap:butt;stroke-linejoin:miter;stroke-miterlimit:4;stroke-dasharray:none;stroke-dashoffset:0"
   vector-effect="non-scaling-stroke"
   transform="translate(-524.33,-148.88)"
   d="m 428.33331,183.66666 q 114,-79 192,-57"
   stroke-linecap="round"
   id="path697" />
</g>
<g
   transform="matrix(0.04264067,-0.01828832,0.00738604,0.06753477,228.84306,130.80977)"
   id="g703">
<circle
   style="opacity:1;fill:none;fill-rule:nonzero;stroke:#000000;stroke-width:2;stroke-linecap:butt;stroke-linejoin:miter;stroke-miterlimit:4;stroke-dasharray:none;stroke-dashoffset:0"
   vector-effect="non-scaling-stroke"
   cx="0"
   cy="0"
   r="40"
   id="circle701" />
</g>
<g
   transform="matrix(0.14010508,-0.06009017,0.02426842,0.22189994,213.1353,166.14088)"
   id="g707"
   style="fill:#e6e6e6">
<path
   style="opacity:1;fill:#e6e6e6;fill-rule:nonzero;stroke:#000000;stroke-width:4;stroke-linecap:butt;stroke-linejoin:miter;stroke-miterlimit:4;stroke-dasharray:none;stroke-dashoffset:0"
   vector-effect="non-scaling-stroke"
   transform="translate(-51.83,-51.83)"
   d="m 0,51.82677 v 0 C 0,23.203635 23.203636,0 51.82677,0 v 0 c 13.745312,0 26.927654,5.4603047 36.64706,15.17971 9.719406,9.719404 15.17971,22.901749 15.17971,36.64706 v 0 c 0,28.623135 -23.203636,51.82677 -51.82677,51.82677 v 0 C 23.203635,103.65354 0,80.449904 0,51.82677 Z m 25.913385,0 v 0 c 0,14.311565 11.60182,25.913387 25.913385,25.913387 14.311565,0 25.913387,-11.601822 25.913387,-25.913387 0,-14.311565 -11.601822,-25.913385 -25.913387,-25.913385 v 0 c -14.311565,0 -25.913385,11.60182 -25.913385,25.913385 z"
   stroke-linecap="round"
   id="path705" />
</g>
<g
   transform="matrix(0.04264067,-0.01828832,0.00738604,0.06753477,256.28613,95.839071)"
   id="g711">
<circle
   style="opacity:1;fill:none;fill-rule:nonzero;stroke:#000000;stroke-width:2;stroke-linecap:butt;stroke-linejoin:miter;stroke-miterlimit:4;stroke-dasharray:none;stroke-dashoffset:0"
   vector-effect="non-scaling-stroke"
   cx="0"
   cy="0"
   r="40"
   id="circle709" />
</g>
<g
   transform="matrix(0.04264067,-0.01828832,0.00738604,0.06753477,289.34352,71.560593)"
   id="g715">
<circle
   style="opacity:1;fill:none;fill-rule:nonzero;stroke:#000000;stroke-width:2;stroke-linecap:butt;stroke-linejoin:miter;stroke-miterlimit:4;stroke-dasharray:none;stroke-dashoffset:0"
   vector-effect="non-scaling-stroke"
   cx="0"
   cy="0"
   r="40"
   id="circle713" />
</g>
<g
   transform="matrix(0.04264067,-0.01828832,0.00738604,0.06753477,312.30423,65.753039)"
   id="g719">
<circle
   style="opacity:1;fill:none;fill-rule:nonzero;stroke:#000000;stroke-width:2;stroke-linecap:butt;stroke-linejoin:miter;stroke-miterlimit:4;stroke-dasharray:none;stroke-dashoffset:0"
   vector-effect="non-scaling-stroke"
   cx="0"
   cy="0"
   r="40"
   id="circle717" />
</g>
<path
   style="fill:#12320a;fill-opacity:1;stroke:#000000;stroke-width:4.075;stroke-linecap:round;stroke-linejoin:round;stroke-miterlimit:4;stroke-dasharray:none;stroke-opacity:1"
   d="m 86.363288,154.89176 83.479062,-0.68768 c 0,0 17.97119,-52.95074 -0.5797,-33.69594 -18.55091,19.25483 -103.189408,26.13155 -82.899362,0 20.290042,-26.131529 0,34.38362 0,34.38362 z"
   id="path13677" /></svg>
